<mxfile host="app.diagrams.net" modified="2023-12-06T20:54:28.819Z" agent="Mozilla/5.0 (Windows NT 10.0; Win64; x64) AppleWebKit/537.36 (KHTML, like Gecko) Chrome/119.0.0.0 Safari/537.36" etag="UgGThbMszbJQ8YvWie9U" version="22.1.7" type="device">
  <diagram name="PÃ¡gina-1" id="XNWJfGE76qUtyLRqPXPD">
    <mxGraphModel dx="1434" dy="782" grid="1" gridSize="10" guides="1" tooltips="1" connect="1" arrows="1" fold="1" page="1" pageScale="1" pageWidth="827" pageHeight="1169" math="0" shadow="0">
      <root>
        <mxCell id="0" />
        <mxCell id="1" parent="0" />
        <mxCell id="F2LRJQBPUiD0fWCoqzh0-1" value="" style="whiteSpace=wrap;html=1;aspect=fixed;" vertex="1" parent="1">
          <mxGeometry x="100" y="90" width="960" height="960" as="geometry" />
        </mxCell>
        <mxCell id="F2LRJQBPUiD0fWCoqzh0-2" value="RMA" style="rounded=1;whiteSpace=wrap;html=1;" vertex="1" parent="1">
          <mxGeometry x="100" y="90" width="120" height="60" as="geometry" />
        </mxCell>
        <mxCell id="F2LRJQBPUiD0fWCoqzh0-3" value="SERVICIOS" style="rounded=1;whiteSpace=wrap;html=1;" vertex="1" parent="1">
          <mxGeometry x="220" y="90" width="120" height="60" as="geometry" />
        </mxCell>
        <mxCell id="F2LRJQBPUiD0fWCoqzh0-4" value="ESPERANDO CONFIRMACION" style="rounded=1;whiteSpace=wrap;html=1;" vertex="1" parent="1">
          <mxGeometry x="340" y="90" width="120" height="60" as="geometry" />
        </mxCell>
        <mxCell id="F2LRJQBPUiD0fWCoqzh0-5" value="ESPERANDO PIEZA" style="rounded=1;whiteSpace=wrap;html=1;" vertex="1" parent="1">
          <mxGeometry x="460" y="90" width="120" height="60" as="geometry" />
        </mxCell>
        <mxCell id="F2LRJQBPUiD0fWCoqzh0-6" value="EQUIPOS DESCARTADOS" style="rounded=1;whiteSpace=wrap;html=1;" vertex="1" parent="1">
          <mxGeometry x="580" y="90" width="120" height="60" as="geometry" />
        </mxCell>
        <mxCell id="F2LRJQBPUiD0fWCoqzh0-7" value="DESGUACE" style="rounded=1;whiteSpace=wrap;html=1;" vertex="1" parent="1">
          <mxGeometry x="700" y="90" width="120" height="60" as="geometry" />
        </mxCell>
        <mxCell id="F2LRJQBPUiD0fWCoqzh0-8" value="TRABAJOS EXTERNOS" style="rounded=1;whiteSpace=wrap;html=1;" vertex="1" parent="1">
          <mxGeometry x="820" y="90" width="120" height="60" as="geometry" />
        </mxCell>
        <mxCell id="F2LRJQBPUiD0fWCoqzh0-9" value="OPCIONES" style="rounded=1;whiteSpace=wrap;html=1;" vertex="1" parent="1">
          <mxGeometry x="940" y="90" width="120" height="60" as="geometry" />
        </mxCell>
      </root>
    </mxGraphModel>
  </diagram>
</mxfile>
